<svg version="1.1" xmlns="http://www.w3.org/2000/svg" 
     xmlns:xlink="http://www.w3.org/1999/xlink" 
     width="442.03784" height="124.41172" viewBox="0,0,442.03784,124.41172">
  <g transform="translate(-18.98108,-116.29838)">
    <g data-paper-data="{&quot;isPaintingLayer&quot;:true}" fill-rule="nonzero" stroke-linejoin="miter" stroke-miterlimit="10" stroke-dasharray="" stroke-dashoffset="0" style="mix-blend-mode: normal">
      <g>
        <path d="M99.08318,221.02888v-101.73899h343.1197v101.73899z" fill="#2eff26" stroke="none" stroke-width="NaN" stroke-linecap="butt"/>
        <text transform="translate(130.65533,158.35766) scale(0.99611,0.96688)" font-size="40" xml:space="preserve" fill="#ffffff" fill-rule="nonzero" stroke="none" stroke-width="1" stroke-linecap="butt" stroke-linejoin="miter" stroke-miterlimit="10" stroke-dasharray="" stroke-dashoffset="0" font-family="Arial, Helvetica, sans-serif" font-weight="normal" text-anchor="start" style="mix-blend-mode: normal">
          <tspan x="0" dy="0">Automation</tspan>
          <tspan x="0" dy="46.15px">obs</tspan>
        </text>
        <g>
          <path d="M376.18448,222.96668c0,0 -23.2548,-9.47531 -24.03668,-13.86525c-1.24857,-7.01026 -2.64717,-17.6914 -1.49097,-25.89071c2.02319,-14.34784 16.82367,-28.9229 16.99421,-29.03683c21.22142,-14.17776 26.97933,-15.33109 50.43592,-9.1629c2.9649,0.77966 6.50092,2.73185 10.08778,3.69532c17.78031,4.77605 19.68041,3.43976 22.06457,6.26857c1.90189,2.2566 5.4811,7.87949 7.69098,16.15037c2.06464,7.72741 3.60258,18.28349 2.92768,28.3345c-0.58106,8.65329 -3.17076,17.00302 -4.18035,22.02516c-0.64629,3.21494 -21.48735,4.38274 -21.48735,4.38274" fill="#000000" stroke="#505050" stroke-width="0" stroke-linecap="round"/>
          <path d="M359.52127,195.88272c1.42575,-25.86026 23.54542,-45.66834 49.40568,-44.24257c25.86026,1.42575 45.66834,23.54543 44.24259,49.40569c-0.49607,8.99762 -2.34217,16.4713 -6.0136,22.31096c-6.8807,10.94419 -20.17248,16.14916 -43.00387,14.8904c-35.01386,-1.93042 -46.05654,-16.50421 -44.63079,-42.36447z" fill="#ffffff" stroke="#ffffff" stroke-width="0.5" stroke-linecap="butt"/>
          <path d="M380.13648,151.28536l30.1123,-3.21518l28.82307,7.39311l19.21588,21.9538c0,0 -16.05001,0.35604 -27.38655,-1.5099c-11.33654,-1.86594 -18.38639,-6.41957 -27.75698,-7.56649c-9.37061,-1.14692 -16.3302,1.65343 -24.01583,1.2297c-7.68562,-0.42373 -19.17067,-3.6107 -19.17067,-3.6107z" fill="#000000" stroke="none" stroke-width="0" stroke-linecap="round"/>
        </g>
      </g>
      <g data-paper-data="{&quot;index&quot;:null}" stroke-width="0">
        <path d="M51.35015,211.99034l-32.36907,8.58302l9.21197,-55.56407l27.7644,23.53242z" fill="#ababab" stroke="#000000" stroke-linecap="round"/>
        <path d="M45.05429,228.78712l9.46826,-60.08495l75.66252,11.92299c0,0 -1.82166,11.56017 -3.01581,19.13817c-1.7467,11.08445 -6.45244,40.94677 -6.45244,40.94677z" fill="#ababab" stroke="none" stroke-linecap="butt"/>
        <path d="M119.03662,184.79802c1.96646,0.30988 3.29368,2.25485 2.96445,4.3442c-0.32924,2.08937 -2.19028,3.53193 -4.15674,3.22205c-1.96646,-0.30988 -3.29368,-2.25485 -2.96445,-4.3442c0.32924,-2.08937 2.19028,-3.53193 4.15674,-3.22205z" fill="#ff0000" stroke="none" stroke-linecap="butt"/>
      </g>
    </g>
  </g>
</svg>

